<?xml version="1.0" encoding="UTF-8"?>
<svg version="1.1" xmlns="http://www.w3.org/2000/svg" xmlns:xlink="http://www.w3.org/1999/xlink">
	<symbol id="spinner" stroke-width="1" viewBox="0 0 16 16" fill="none">
		<g clip-path="url(#clip0)">
		<path d="M13.6569 13.6569C12.7266 14.5871 11.5812 15.2736 10.3223 15.6555C9.06332 16.0374 7.72961 16.1029 6.43928 15.8463C5.14895 15.5896 3.94183 15.0187 2.92486 14.1841C1.90788 13.3495 1.11243 12.2769 0.608966 11.0615C0.105504 9.846 -0.0904279 8.52514 0.0385242 7.21586C0.167476 5.90659 0.617333 4.64933 1.34825 3.55544C2.07916 2.46155 3.06857 1.5648 4.22883 0.94463C5.38909 0.324457 6.68439 -1.56885e-08 8 0V1.46547C6.92539 1.46547 5.86737 1.73049 4.91964 2.23706C3.97192 2.74362 3.16376 3.4761 2.56674 4.36961C1.96971 5.26311 1.60226 6.29007 1.49693 7.3595C1.3916 8.42894 1.55164 9.50785 1.96288 10.5007C2.37412 11.4935 3.02385 12.3695 3.85454 13.0513C4.68522 13.733 5.67122 14.1993 6.72518 14.409C7.77914 14.6186 8.86854 14.5651 9.89688 14.2532C10.9252 13.9412 11.8608 13.3805 12.6206 12.6206L13.6569 13.6569Z" fill="#333333"/>
		</g>
		<defs>
			<clipPath id="clip0">
				<rect width="16" height="16" fill="white"/>
			</clipPath>
		</defs>
	</symbol>
	<symbol id="ellipsis" width="17" height="17" viewBox="0 0 17 17">
		<g clip-path="url(#clip0)">
			<path d="M0.0423661 9.05093C0.046508 8.3882 0.587113 7.85431 1.24984 7.85845V7.85845C1.91257 7.86259 2.44646 8.4032 2.44232 9.06593V9.06593C2.43818 9.72866 1.89757 10.2625 1.23484 10.2584V10.2584C0.572114 10.2543 0.0382242 9.71366 0.0423661 9.05093V9.05093Z"/>
			<path d="M6.99909 9.09347C7.00323 8.43074 7.54384 7.89685 8.20657 7.90099V7.90099C8.8693 7.90514 9.40319 8.44574 9.39905 9.10847V9.10847C9.3949 9.7712 8.8543 10.3051 8.19157 10.3009V10.3009C7.52884 10.2968 6.99495 9.7562 6.99909 9.09347V9.09347Z"/>
			<path d="M13.6423 9.13717C13.6465 8.47444 14.1871 7.94055 14.8498 7.94469V7.94469C15.5125 7.94884 16.0464 8.48944 16.0423 9.15217V9.15217C16.0382 9.8149 15.4975 10.3488 14.8348 10.3446V10.3446C14.1721 10.3405 13.6382 9.7999 13.6423 9.13717V9.13717Z"/>
		</g>
		<defs>
			<clipPath id="clip0">
				<rect width="16" height="16" fill="white" transform="translate(0.0498657 0.949829)"/>
			</clipPath>
		</defs>
	</symbol>
	<symbol id="checkmark" width="20" height="20" viewBox="0 0 20 20">
		<path d="M10 0.375C4.6375 0.375 0.375 4.6375 0.375 10C0.375 15.3625 4.6375 19.625 10 19.625C15.3625 19.625 19.625 15.3625 19.625 10C19.625 4.6375 15.3625 0.375 10 0.375ZM10 1.75C14.5375 1.75 18.25 5.4625 18.25 10C18.25 14.5375 14.5375 18.25 10 18.25C5.4625 18.25 1.75 14.5375 1.75 10C1.75 5.4625 5.4625 1.75 10 1.75ZM13.575 6.7L8.625 11.7875L6.425 9.45L5.325 10.55L8.625 13.7125L14.675 7.6625L13.575 6.7Z"/>
	</symbol>
	<symbol id="warnsign" width="22" height="19" viewBox="0 0 22 19">
		<path fill-rule="evenodd" clip-rule="evenodd" d="M19.0428 15.8464C19.3047 16.3047 18.9738 16.875 18.4459 16.875L3.55403 16.875C3.02615 16.875 2.69521 16.3047 2.95711 15.8464L10.4031 2.816C10.667 2.35413 11.333 2.35413 11.5969 2.816L19.0428 15.8464ZM9.80614 1.0892C10.334 0.165456 11.666 0.165457 12.1938 1.0892L20.8244 16.1928C21.3482 17.1095 20.6864 18.25 19.6306 18.25H2.36934C1.31359 18.25 0.651705 17.1095 1.17551 16.1928L9.80614 1.0892ZM11.4568 5.87499H10.543C10.4018 5.87499 10.2669 5.96048 10.1712 6.11077C10.0755 6.26105 10.0276 6.46241 10.0391 6.66605L10.4344 12.2501C10.4516 12.553 10.6266 12.7862 10.8368 12.7862H11.1631C11.3732 12.7862 11.5482 12.553 11.5655 12.2501L11.9607 6.66606C11.9723 6.46241 11.9244 6.26105 11.8287 6.11077C11.733 5.96048 11.5981 5.87499 11.4568 5.87499ZM10.9999 16.0503C11.5166 16.0503 11.9355 15.6193 11.9355 15.0877C11.9355 14.556 11.5166 14.125 10.9999 14.125C10.4832 14.125 10.0644 14.556 10.0644 15.0877C10.0644 15.6193 10.4832 16.0503 10.9999 16.0503Z"/>
	</symbol>
	<symbol id="filledKey" width="20" height="20" viewBox="0 0 20 20">
		<path fill-rule="evenodd" clip-rule="evenodd" d="M14.2895 6.51491C14.2894 4.14619 12.369 2.22582 9.99995 2.22544C7.63099 2.22586 5.7106 4.14626 5.7106 6.51493C5.7108 8.30323 6.81501 9.87722 8.43954 10.5111L8.43968 18.1445L10.0001 19.7049L12.6547 17.0503L11.7591 16.1547L12.6546 15.2592L11.5604 14.165L11.5604 13.942L12.6546 12.8478L11.5602 11.7534L11.5605 10.5115C13.1851 9.87753 14.2895 8.3032 14.2895 6.51491ZM9.84262 4.20397C8.9175 4.20468 8.16832 4.95386 8.16826 5.87798C8.16806 6.80317 8.91777 7.55288 9.84227 7.55221C10.767 7.5525 11.5164 6.80312 11.5165 5.87798C11.5162 4.95395 10.7669 4.20462 9.84262 4.20397Z"/>
	</symbol>
	<symbol id="grid_delete" width="16" height="16" viewBox="0 0 1024 960">
		<path d="M0 896h1024v-352c0-17.673-14.33-32-32-32s-32 14.327-32 32v32h-256v-32c0-17.673-14.33-32-32-32s-32 14.327-32 32v32h-256v-192h32c17.673 0 32-14.327 32-32s-14.327-32-32-32h-32v-192h32c17.673 0 32-14.33 32-32s-14.327-32-32-32h-416v832zM64 320v-192h256v192h-256zM704 832v-192h256v192h-256zM384 640h256v192h-256v-192zM64 832v-192h256v192h-256zM320 576h-256v-192h256v192zM587.645 372.353c14.996 14.996 39.31 14.996 54.307 0l149.344-149.339 149.338 149.339c14.995 14.996 39.309 14.996 54.304 0 15.002-14.996 15.002-39.309 0-54.305l-149.338-149.344 149.338-149.338c14.995-14.995 14.995-39.309 0-54.304-14.995-15.002-39.309-15.002-54.304 0l-149.338 149.338-149.344-149.338c-14.995-15.002-39.309-15.002-54.305 0-14.996 14.995-14.996 39.309 0 54.304l149.339 149.338-149.34 149.344c-14.996 14.996-14.996 39.309 0 54.305z" />
	</symbol>
	<symbol id="primaryKey" width="14" height="14" viewBox="0 0 14 14">
		<path d="M12.3844 7.34698C14.0593 5.67198 14.0593 2.95616 12.3843 1.28069C10.7089 -0.394118 7.99308 -0.394118 6.31818 1.28079C5.0538 2.54544 4.72161 4.43923 5.42208 6.03619L0.0245514 11.4339V13.6406H3.77877V12.3741H5.04518V10.8267L5.20293 10.669H6.75033V9.12129L7.62868 8.24326C9.22571 8.94376 11.1199 8.61151 12.3845 7.34701L12.3844 7.34698ZM6.37274 6.19038L6.24011 5.93623C5.53721 4.58913 5.77955 2.92454 6.87068 1.83319C8.24046 0.463382 10.4617 0.463382 11.832 1.83316C13.2018 3.20348 13.2018 5.42473 11.832 6.7946C10.7408 7.88582 9.07586 8.12819 7.72868 7.42529L7.47455 7.29269L5.96911 8.79763V9.88776H4.87946L4.26402 10.503V11.5929H2.99761V12.8594H0.805895V11.7575L6.37283 6.19038H6.37274ZM10.3214 4.38338C9.97243 4.73235 9.40743 4.73235 9.05852 4.38319C8.70964 4.03482 8.70964 3.46966 9.05868 3.12073C9.40714 2.77235 9.97221 2.77229 10.3214 3.12073C10.6696 3.4697 10.6696 4.03501 10.3214 4.38341L10.3214 4.38338ZM10.8741 2.56848C10.2194 1.91482 9.15989 1.91482 8.50639 2.56823C7.85205 3.22229 7.85205 4.28254 8.50624 4.93579C9.15993 5.58988 10.2197 5.58988 10.874 4.93579C11.5271 4.2822 11.5271 3.22251 10.8741 2.56851V2.56848Z"/>
	</symbol>
	<symbol id="foreignKey" width="14" height="14" viewBox="0 0 14 14">
		<path fill-rule="evenodd" clip-rule="evenodd" d="M1.2807 7.34698C-0.394177 5.67198 -0.394177 2.95617 1.28076 1.2807C2.95617 -0.394114 5.67201 -0.394114 7.34692 1.28079C8.61129 2.54545 8.94348 4.43923 8.24301 6.0362L13.6405 11.4339V13.6406H9.88632V12.3741H8.61992V10.8267L8.46217 10.669H6.91476V9.12129L6.03642 8.24326C4.43938 8.94376 2.54523 8.61148 1.2807 7.34698ZM2.79104 2.56848C3.4457 1.91482 4.5052 1.91482 5.1587 2.56823C5.81304 3.22229 5.81304 4.28254 5.15885 4.93579C4.50517 5.58989 3.44538 5.58989 2.79113 4.93579C2.13795 4.2822 2.13795 3.22248 2.79104 2.56848Z"/>
	</symbol>
	
	<symbol id="ladderFromWell" width="69" height="78" viewBox="0 0 69 78" fill="none">
		<path d="M30.68 56.771C36.18 56.771 41.15 57.2611 45.4 58.101L42.48 64.521L25.06 56.961C26.86 56.831 28.74 56.771 30.68 56.771ZM61.2 68.3611C61.1899 68.3911 61.18 68.4311 61.17 68.461C61.12 68.591 61.08 68.721 61.02 68.841C61.0099 68.8911 60.98 68.9311 60.96 68.971C60.9 69.091 60.84 69.211 60.77 69.331C60.7599 69.3611 60.74 69.3811 60.73 69.411C59.55 71.3211 56.77 73.161 52.6899 74.651C52.6299 74.6711 52.59 74.711 52.54 74.7411C47.1899 76.6811 39.65 78.0011 30.68 78.0011C24.4399 78.0011 18.91 77.3711 14.3199 76.331C14.25 76.3011 14.2 76.2611 14.1299 76.2511C6.63995 74.541 1.46997 71.6711 0.269958 68.6911C0.259949 68.6711 0.25 68.6411 0.23999 68.6211C0.179993 68.4511 0.129944 68.281 0.0899658 68.1111C0.079956 68.0611 0.0699464 68.021 0.0599976 67.971C0.0199585 67.781 0 67.581 0 67.3811C0 67.1911 0.0199585 66.9911 0.0599976 66.791C0.0699463 66.7511 0.079956 66.711 0.0899658 66.661C0.129944 66.4911 0.179993 66.3211 0.23999 66.151C0.25 66.1311 0.259949 66.101 0.269958 66.081C1.46997 63.101 6.63995 60.231 14.1299 58.521C14.2 58.5111 14.25 58.471 14.3199 58.4411C15.61 58.151 16.98 57.8911 18.42 57.661L15.66 63.7411C15.43 64.2411 15.66 64.831 16.16 65.0611C16.29 65.1211 16.43 65.151 16.5699 65.151C16.9499 65.151 17.31 64.9311 17.48 64.5611L20.7599 57.341L20.8199 57.221C20.86 57.2611 20.9 57.291 20.9399 57.3211C21 57.3711 21.06 57.411 21.1299 57.4411L41.65 66.341L38.37 73.581C38.14 74.081 38.37 74.6711 38.87 74.901C39 74.961 39.14 74.9911 39.28 74.9911C39.66 74.9911 40.03 74.771 40.1899 74.401L47.39 58.531C49.28 58.961 51 59.471 52.54 60.031C52.59 60.0611 52.6299 60.101 52.6899 60.1211C56.77 61.6111 59.55 63.4511 60.73 65.3611C60.74 65.3911 60.7599 65.411 60.77 65.4411C60.84 65.5611 60.9 65.6811 60.96 65.8011C60.98 65.841 61.0099 65.8811 61.02 65.9211C61.08 66.0511 61.12 66.1811 61.17 66.3111C61.18 66.341 61.1899 66.3811 61.2 66.411C61.3 66.731 61.35 67.0611 61.35 67.3811C61.35 67.711 61.3 68.031 61.2 68.3611Z" fill="black"/>
		<path d="M68.35 9.93106C67.85 9.70108 67.2599 9.92105 67.03 10.421L64.5 16.0011L43.99 7.10104C43.86 7.04104 43.73 7.02102 43.6 7.02102L46.14 1.41104C46.37 0.911038 46.14 0.321072 45.64 0.0910307C45.14 -0.13895 44.55 0.0810209 44.3199 0.591031L19.39 55.521C20.15 55.411 20.92 55.3211 21.71 55.2411L26.22 45.3011C26.31 45.401 26.42 45.481 26.55 45.531L47.06 54.4311L46.23 56.2511C46.91 56.3811 47.58 56.531 48.23 56.6911L68.85 11.2511C69.08 10.7511 68.86 10.151 68.35 9.93106ZM47.89 52.6111L27.34 43.7011C27.23 43.651 27.11 43.6211 26.99 43.6211L32.03 32.5111C32.12 32.6111 32.23 32.6911 32.36 32.7511L52.86 41.6411L47.89 52.6111ZM53.6899 39.8211L33.16 30.911C33.04 30.8611 32.91 30.841 32.79 30.831L37.4399 20.591C37.53 20.6911 37.64 20.781 37.78 20.841L58.27 29.731L53.6899 39.8211ZM59.09 27.911L38.5699 19.0011C38.45 18.9511 38.3199 18.9311 38.1899 18.921L42.84 8.67105C42.9399 8.78103 43.05 8.87106 43.1899 8.93106L63.67 17.8211L59.09 27.911Z" fill="black"/>
		<path d="M20.8199 57.221L20.7599 57.341C20.8199 57.341 20.8799 57.331 20.9399 57.3211C20.9 57.291 20.86 57.2611 20.8199 57.221Z" fill="black"/>
	</symbol>

	<symbol id="fullscreen" width="14" height="14" viewBox="0 0 14 14" fill="none">
		<path d="M1.5 0C0.671573 0 0 0.670696 0 1.49912C0 2.50135 0 3.76651 0 4.50178C0 4.77792 0.223858 5 0.5 5C0.776142 5 1 4.77614 1 4.5V2.5C1 1.67157 1.67157 1 2.5 1H4.5C4.77614 1 5 0.776142 5 0.5C5 0.223858 4.77614 0 4.5 0H1.5ZM9.49822 0C9.22208 0 9 0.223858 9 0.5C9 0.776142 9.22386 1 9.5 1H11.5C12.3284 1 13 1.67157 13 2.5V4.5C13 4.77614 13.2239 5 13.5 5C13.7761 5 14 4.77614 14 4.5V1.5C14 0.671573 13.3293 0 12.5009 0C11.4987 0 10.2335 0 9.49822 0ZM0.5 9C0.223858 9 0 9.22208 0 9.49822C0 10.2335 0 11.4987 0 12.5009C0 13.3293 0.671573 14 1.5 14H4.5C4.77614 14 5 13.7761 5 13.5C5 13.2239 4.77614 13 4.5 13H2.5C1.67157 13 1 12.3284 1 11.5V9.5C1 9.22386 0.776142 9 0.5 9ZM13.5 9C13.2239 9 13 9.22386 13 9.5V11.5C13 12.3284 12.3284 13 11.5 13H9.5C9.22386 13 9 13.2239 9 13.5C9 13.7761 9.22208 14 9.49822 14C10.2335 14 11.4987 14 12.5009 14C13.3293 14 14 13.3284 14 12.5V9.5C14 9.22386 13.7761 9 13.5 9Z" fill="black"/>
	</symbol>
	<symbol id="external" width="16" height="16" viewBox="0 0 16 16" fill="none">
		<path fill-rule="evenodd" clip-rule="evenodd" d="M14.4656 1.00019C14.4458 1.00081 14.426 1.00254 14.4064 1.00537H10.226C10.0344 1.00266 9.85618 1.10332 9.7596 1.26881C9.66301 1.43429 9.66301 1.63896 9.7596 1.80444C9.85618 1.96992 10.0344 2.07058 10.226 2.06787H13.1935L6.66283 8.59853C6.52435 8.73185 6.46868 8.92956 6.51726 9.11554C6.56583 9.30153 6.71107 9.44677 6.89706 9.49534C7.08304 9.54392 7.28075 9.48825 7.41407 9.34977L13.9447 2.81911V5.78662C13.942 5.97821 14.0427 6.15642 14.2082 6.253C14.3736 6.34959 14.5783 6.34959 14.7438 6.253C14.9093 6.15642 15.0099 5.97821 15.0072 5.78662V1.60409C15.0286 1.44929 14.9808 1.2929 14.8765 1.17656C14.7721 1.06022 14.6218 0.995716 14.4656 1.00022L14.4656 1.00019Z" fill="black" fill-opacity="0.7"/>
		<path fill-rule="evenodd" clip-rule="evenodd" d="M3.71746 3.08818C2.9191 3.17828 2.28001 3.36821 1.82281 3.82593C1.36562 4.28364 1.17777 4.92153 1.0882 5.71957C0.998599 6.51756 1 7.51944 1 8.8438C1 10.1685 0.998902 11.1707 1.09027 11.969C1.18164 12.7674 1.37391 13.4057 1.83216 13.8627C2.29041 14.3197 2.92834 14.5093 3.7258 14.5994C4.52326 14.6895 5.52307 14.6876 6.84376 14.6876C8.16461 14.6876 9.16416 14.6881 9.96172 14.5973C10.7593 14.5064 11.3984 14.3159 11.8564 13.8585C12.3143 13.4011 12.5048 12.7629 12.5962 11.9649C12.6876 11.1669 12.6875 10.1662 12.6875 8.8438C12.6902 8.65221 12.5896 8.47401 12.4241 8.37742C12.2586 8.28084 12.0539 8.28084 11.8884 8.37742C11.7229 8.47401 11.6223 8.65221 11.625 8.8438C11.625 10.1652 11.6204 11.1507 11.541 11.8445C11.4615 12.5384 11.3151 12.8975 11.1052 13.1073C10.8952 13.317 10.5361 13.463 9.84239 13.542C9.14868 13.6211 8.16374 13.6251 6.84375 13.6251C5.52359 13.6251 4.53892 13.6215 3.84511 13.5431C3.15129 13.4647 2.79201 13.3195 2.58232 13.1104C2.37264 12.9013 2.22599 12.5419 2.14653 11.8476C2.06708 11.1533 2.06249 10.1674 2.06249 8.84378C2.06249 7.5198 2.06543 6.53353 2.14342 5.83892C2.22141 5.14431 2.36693 4.78556 2.57506 4.5772C2.78319 4.36885 3.14196 4.22293 3.83678 4.14453C4.5316 4.06612 5.5184 4.06255 6.84376 4.06255C7.03535 4.06526 7.21355 3.9646 7.31014 3.79912C7.40672 3.63364 7.40672 3.42897 7.31014 3.26349C7.21355 3.098 7.03535 2.99734 6.84376 3.00005C5.51787 2.99998 4.51588 2.99808 3.71746 3.08818Z" fill="black" fill-opacity="0.7"/>
	</symbol>
	<symbol id="close" width="16" height="16" viewBox="0 0 16 16" fill="none">
		<path d="M13.9936 3.12381L12.8762 2.00635L8 6.88254L3.12381 2.10793L2.10793 3.12381L6.88254 8L2.00635 12.8762L3.12381 13.9936L8 9.11746L12.8762 13.9936L13.9936 12.8762L9.11746 8L13.9936 3.12381Z" fill="black" fill-opacity="0.7"/>
	</symbol>
</svg>
