<svg width="24" height="22" viewBox="0 0 24 22" fill="none" xmlns="http://www.w3.org/2000/svg">
<rect width="24" height="22" rx="5" fill="#FF0000" fill-opacity="0.3"/>
<path d="M14.7375 16.4C14.3375 16.4 13.9375 16.2 13.6375 16.1C13.3375 15.9 13.0375 15.7 12.7375 15.4C12.5375 15.1 12.3375 14.8 12.1375 14.5C12.0375 14.2 11.9375 13.8 11.9375 13.5V13.3H13.1375C13.1375 13.7 13.2375 14.1 13.3375 14.4C13.4375 14.7 13.6375 14.9 13.8375 15.1C14.0375 15.3 14.3375 15.4 14.5375 15.4C14.8375 15.5 15.0375 15.5 15.2375 15.5C15.8375 15.5 16.4375 15.3 16.7375 14.9C17.1375 14.5 17.3375 14 17.3375 13.4C17.3375 13 17.2375 12.6 17.1375 12.4C17.0375 12.1 16.8375 11.8 16.6375 11.7C16.4375 11.5 16.1375 11.4 15.9375 11.3C15.6375 11.2 15.4375 11.2 15.2375 11.1C15.0375 11.1 14.7375 11 14.4375 10.9C14.1375 10.8 13.8375 10.6 13.5375 10.4C13.2375 10.2 12.9375 9.9 12.7375 9.6C12.5375 9.2 12.4375 8.8 12.3375 8.2C12.3375 7.5 12.5375 6.8 12.9375 6.3C13.3375 5.8 13.9375 5.4 14.6375 5.3V4H15.9375V5.3C16.4375 5.4 16.9375 5.5 17.2375 5.8C17.5375 6 17.8375 6.3 18.0375 6.6C18.2375 6.9 18.3375 7.2 18.4375 7.5C18.5375 7.8 18.5375 8.1 18.5375 8.3H17.3375V8.2C17.3375 8 17.3375 7.7 17.2375 7.5C17.1375 7.3 17.0375 7.1 16.8375 6.9C16.7375 6.7 16.4375 6.6 16.2375 6.5C15.9375 6.4 15.7375 6.3 15.3375 6.3C15.1375 6.3 14.8375 6.3 14.6375 6.4C14.4375 6.5 14.2375 6.6 14.1375 6.8C13.9375 6.9 13.8375 7.1 13.7375 7.4C13.6375 7.6 13.5375 7.9 13.5375 8.2C13.5375 8.5 13.6375 8.8 13.7375 9C13.9375 9.2 14.0375 9.4 14.2375 9.5C14.4375 9.7 14.6375 9.8 14.9375 9.9C15.1375 9.9 15.3375 10 15.6375 10.1C15.8375 10.2 16.1375 10.2 16.4375 10.4C16.7375 10.5 17.1375 10.7 17.4375 10.9C17.7375 11.1 18.0375 11.5 18.3375 11.9C18.6375 12.3 18.7375 12.8 18.7375 13.4C18.7375 13.7 18.6375 14.1 18.5375 14.4C18.4375 14.7 18.2375 15.1 18.0375 15.4C17.8375 15.7 17.5375 15.9 17.2375 16.1C16.9375 16.3 16.5375 16.4 16.0375 16.5V18H14.7375V16.4Z" fill="#222222"/>
<path d="M8.54346 11.9728H10.497V10.7523H8.54346V8.82241H7.33724V10.7523H5.38837V11.9728H7.33724V13.9074H8.54346V11.9728Z" fill="#222222"/>
</svg>
